# xmcd
#
# Track frame offsets:
#	200
#	9685
#	26425
#	40707
#	60245
#	74887
#	91182
#	109755
#	127257
#	140762
#	158935
#	169040
#	184035
#	211682
#
# Disc length: 2958 seconds
#
# Revision: 4
# Processed by: cddbd v1.5.2PL0 Copyright (c) Steve Scherf et al.
# Submitted via: audiograbber 1.83.01
#
DISCID=c00b8c0e
DTITLE=Tammy Rogers - Tammy Rogers
DYEAR=1996
DGENRE=Country
TTITLE0=Coming Home
TTITLE1=Never Far Away
TTITLE2=Oh, Heartache
TTITLE3=Walls
TTITLE4=Come Out and Play
TTITLE5=Nothing at All
TTITLE6=You Will Miss Me
TTITLE7=Ticket to Heaven
TTITLE8=On a Night Like Tonight
TTITLE9=Let's Leave it Like That
TTITLE10=Something Old, Something New
TTITLE11=Another Day
TTITLE12=There is a Fountain
TTITLE13=(Bonus)
EXTD=
EXTT0=
EXTT1=
EXTT2=
EXTT3=
EXTT4=
EXTT5=
EXTT6=
EXTT7=
EXTT8=
EXTT9=
EXTT10=
EXTT11=
EXTT12=
EXTT13=
PLAYORDER=
